<?xml version="1.0" standalone="no"?>
<!DOCTYPE svg PUBLIC "-//W3C//DTD SVG 20010904//EN"
 "http://www.w3.org/TR/2001/REC-SVG-20010904/DTD/svg10.dtd">
<svg version="1.0" xmlns="http://www.w3.org/2000/svg"
 width="200.000000pt" height="100.000000pt" viewBox="0 0 200.000000 100.000000"
 preserveAspectRatio="xMidYMid meet">

<g transform="translate(0.000000,100.000000) scale(0.100000,-0.100000)"
fill="#000000" stroke="none">
<path d="M450 611 c0 -6 14 -11 30 -11 l30 0 0 -65 0 -65 -30 0 c-16 0 -30 -4
-30 -9 0 -13 53 -17 157 -11 77 4 96 9 114 26 28 29 28 89 0 118 -19 19 -35
21 -146 24 -85 3 -125 0 -125 -7z m245 -36 c30 -29 31 -45 4 -79 -19 -24 -26
-26 -95 -26 l-74 0 0 65 0 65 70 0 c62 0 74 -3 95 -25z"/>
<path d="M780 610 c0 -5 14 -10 30 -10 l30 0 0 -64 c0 -62 -1 -65 -25 -68 -54
-7 -26 -22 40 -21 67 0 94 14 40 21 -17 2 -25 9 -25 23 0 17 8 19 78 19 87 0
122 16 122 54 0 47 -26 56 -163 56 -78 0 -127 -4 -127 -10z m257 -26 c13 -35
-10 -49 -91 -52 l-76 -3 0 36 0 35 80 0 c65 0 82 -3 87 -16z"/>
<path d="M315 559 c-38 -16 -71 -31 -72 -33 -3 -3 149 -66 160 -66 4 0 7 4 7
9 0 6 -28 20 -62 32 l-62 23 40 18 c21 10 44 18 50 18 6 0 17 7 24 15 19 23
-5 19 -85 -16z"/>
<path d="M1110 581 c0 -4 21 -16 48 -26 26 -10 51 -21 55 -25 5 -4 -17 -17
-47 -30 -49 -20 -73 -40 -47 -40 21 0 151 64 144 71 -9 9 -133 59 -145 59 -4
0 -8 -4 -8 -9z"/>
<path d="M255 310 c9 -30 13 -35 21 -27 3 3 -2 16 -11 29 l-17 23 7 -25z"/>
<path d="M280 315 c0 -8 5 -15 10 -15 6 0 10 7 10 15 0 8 -4 15 -10 15 -5 0
-10 -7 -10 -15z"/>
<path d="M312 310 c-14 -23 -15 -30 -3 -30 8 0 24 41 18 47 -2 1 -8 -7 -15
-17z"/>
<path d="M352 303 c2 -19 10 -29 23 -31 20 -3 20 -3 0 9 -19 12 -19 12 0 20
20 7 20 8 0 9 l-20 1 20 9 c19 8 19 9 -3 9 -20 1 -23 -3 -20 -26z"/>
<path d="M420 299 c0 -24 4 -30 18 -27 10 2 18 14 20 31 3 22 -1 27 -17 27
-17 0 -21 -6 -21 -31z m30 -9 c0 -5 -4 -10 -10 -10 -5 0 -10 5 -10 10 0 6 5
10 10 10 6 0 10 -4 10 -10z"/>
<path d="M520 306 c0 -29 11 -39 35 -30 24 10 15 48 -12 52 -19 3 -23 -1 -23
-22z m38 -3 c-4 -22 -22 -20 -26 1 -2 10 3 16 13 16 10 0 15 -7 13 -17z"/>
<path d="M600 300 c0 -22 5 -30 18 -30 14 0 15 2 2 10 -13 9 -13 11 0 20 13 9
13 10 0 11 -10 0 -8 3 5 9 19 8 19 9 -2 9 -19 1 -23 -4 -23 -29z"/>
<path d="M666 310 c3 -14 8 -27 10 -29 6 -7 22 10 27 29 3 11 1 18 -4 14 -5
-3 -9 -13 -9 -22 -1 -13 -5 -10 -16 8 l-15 25 7 -25z"/>
<path d="M732 303 c2 -19 10 -29 23 -31 20 -3 20 -3 0 9 -19 12 -19 12 0 20
20 7 20 8 0 9 l-20 1 20 9 c19 8 19 9 -3 9 -20 1 -23 -3 -20 -26z"/>
<path d="M801 303 c-1 -25 3 -33 17 -33 11 0 13 3 6 8 -7 4 -14 18 -17 32 -4
21 -4 20 -6 -7z"/>
<path d="M853 314 c-3 -8 2 -23 11 -32 15 -15 17 -15 32 0 21 21 11 48 -16 48
-11 0 -23 -7 -27 -16z m43 -5 c7 -12 -15 -31 -28 -23 -4 3 -8 12 -8 20 0 17
26 19 36 3z"/>
<path d="M930 306 c0 -22 3 -24 23 -17 12 5 22 15 22 22 0 8 -10 15 -22 17
-19 3 -23 -1 -23 -22z m35 4 c-3 -5 -10 -10 -16 -10 -5 0 -9 5 -9 10 0 6 7 10
16 10 8 0 12 -4 9 -10z"/>
<path d="M1000 305 c1 -26 2 -28 11 -12 8 14 8 22 0 30 -8 8 -11 3 -11 -18z"/>
<path d="M1032 310 c-16 -26 -15 -35 2 -21 11 9 15 9 19 -1 3 -7 6 -1 6 15 1
32 -9 35 -27 7z"/>
<path d="M1090 300 c0 -22 5 -30 18 -30 14 0 15 2 2 10 -13 9 -13 11 0 20 13
9 13 10 0 11 -10 0 -8 3 5 9 19 8 19 9 -2 9 -19 1 -23 -4 -23 -29z"/>
<path d="M1151 303 c0 -25 1 -26 9 -8 7 18 8 19 15 3 11 -27 25 -21 24 10 0
24 -1 25 -9 7 -7 -18 -8 -19 -15 -2 -11 26 -25 20 -24 -10z"/>
<path d="M1238 303 c5 -23 7 -25 10 -8 2 11 9 23 16 27 6 5 3 8 -10 8 -18 0
-20 -4 -16 -27z"/>
</g>
</svg>
